<svg id="Layer_1" data-name="Layer 1" xmlns="http://www.w3.org/2000/svg" width="726" height="726" viewBox="0 0 726 726"><defs><style>.cls-1{fill:#f7f6dc;}</style></defs><title>cykel_gul</title><path class="cls-1" d="M382.21,51.07c9.11,1.45,15.81,5.29,28.59,12.61,6.56,3.76,14.95,8.57,26.29,14.56a13.78,13.78,0,0,1,1-1.13l-5.26-5.66L431,73.14,427,68.75l8-7.48,4.08,4.4-1.82,1.69,6.11,6.58a13.12,13.12,0,0,1,2-.51l2.31-63.13q-8.72-2.06-17.59-3.68Z"/><path class="cls-1" d="M689.76,225.51a43.84,43.84,0,0,0,6.78-8,363.14,363.14,0,0,0-38.92-67.55,43.63,43.63,0,0,0-38.28,27.81l.21.15-.53.74a43.65,43.65,0,0,0,70.74,46.88Z"/><path class="cls-1" d="M658.43,501.35a43.62,43.62,0,0,0,35.73,13.75A360.57,360.57,0,0,0,719.35,439a43.65,43.65,0,0,0-60.92,62.4Z"/><path class="cls-1" d="M692.23,422a49.3,49.3,0,0,1,28.46,10.28q1.86-9.72,3.2-19.62c-8.75-4.71-15.56-8.61-21.07-11.77-15.3-8.77-20.71-11.87-31.79-12.41l-1.81,1.68c-.71,3.11-1,11.75,5.41,34.37A49.71,49.71,0,0,1,692.23,422Z"/><path class="cls-1" d="M705.8,395.68c5.05,2.89,11.18,6.4,18.89,10.6.09-.77.18-1.54.26-2.31l-3-3.22,3.67-3.41q1.53-16.63,1.54-33.69,0-13.18-.93-26.14l-49,45.56C686.32,384.52,693,388.36,705.8,395.68Z"/><path class="cls-1" d="M463.09,471.24a13.78,13.78,0,0,1,1-1.13l-5.26-5.66L457,466.14,453,461.75l8-7.48,4.08,4.4-1.82,1.69,6.11,6.58a13.12,13.12,0,0,1,2-.51l2.72-74.34-4.57-4.93h0l-61.26,56.92c9.11,1.45,15.81,5.29,28.59,12.61C443.36,460.44,451.75,465.25,463.09,471.24Z"/><path class="cls-1" d="M674.64,542.89c-.55,0-1.09,0-1.64,0a43.64,43.64,0,0,0-40.66,27.88l.21.15-.53.74a43.84,43.84,0,0,0,2.12,34.69,364.11,364.11,0,0,0,45.49-63A45.81,45.81,0,0,0,674.64,542.89Z"/><path class="cls-1" d="M545.76,59.51a44,44,0,0,0,5.91-6.74,360.66,360.66,0,0,0-78.09-35.33,43.65,43.65,0,0,0,72.18,42.07Z"/><path class="cls-1" d="M475.33,360.68c-1.47-5.66-5.95-10.1-8-9.84-.4.05-1.13.88-2.51,2.46-.93,1.08-2.1,2.43-3.7,4.1-1.88,2-3.85,3.87-5.88,5.66l14.35,15.45C472.52,375.05,477.24,368,475.33,360.68Z"/><path class="cls-1" d="M501,405.63a43.64,43.64,0,1,0,42.62-28.74c-.55,0-1.09,0-1.64,0a43.64,43.64,0,0,0-40.66,27.88l.21.15Z"/><path class="cls-1" d="M567.8,622.68c6.56,3.76,15,8.57,26.29,14.56a13.78,13.78,0,0,1,1-1.13l-5.26-5.66L588,632.14,584,627.75l8-7.48,4.08,4.4-1.82,1.69,6.1,6.57a14.6,14.6,0,0,1,2-.51l2.72-74.33-4.57-4.93h0l-61.26,56.92C548.32,611.52,555,615.36,567.8,622.68Z"/><path class="cls-1" d="M385.67,707.33a49.28,49.28,0,0,1-13.25-35.62A49.93,49.93,0,0,1,374.24,660l-14.35-10.35-2.57,70a13.82,13.82,0,0,1,6.74,4,13.33,13.33,0,0,1,2.11,3,366.4,366.4,0,0,0,50.56-3.77A49.41,49.41,0,0,1,385.67,707.33Z"/><path class="cls-1" d="M316.8,709.68c6.56,3.76,14.95,8.57,26.29,14.56a13.78,13.78,0,0,1,1-1.13l-5.26-5.66L337,719.14,333,714.75l8-7.48,4.08,4.4-1.82,1.69,6.1,6.57a14.6,14.6,0,0,1,2-.51l2.72-74.33-4.57-4.93h0l-61.26,56.92C297.32,698.52,304,702.36,316.8,709.68Z"/><path class="cls-1" d="M355.33,613.68c-1.47-5.66-5.95-10.09-8-9.84-.4,0-1.13.88-2.51,2.46-.93,1.08-2.1,2.43-3.7,4.1-1.88,2-3.85,3.87-5.88,5.66l14.35,15.45C352.52,628.05,357.24,621,355.33,613.68Z"/><path class="cls-1" d="M554.23,649a49.38,49.38,0,0,1,24.48,7.5q6.18-4.54,12.17-9.34c0-.5,0-1,0-1.5a13.27,13.27,0,0,1,.47-3.09c-11.44-6.05-19.9-10.9-26.51-14.68-15.3-8.77-20.71-11.87-31.79-12.41l-1.81,1.68c-.71,3.11-1,11.75,5.41,34.36A49.48,49.48,0,0,1,554.23,649Z"/><path class="cls-1" d="M313.82,714.89c-15.3-8.77-20.71-11.87-31.79-12.41l-1.81,1.68c-.42,1.82-.68,5.54.45,12.83a361.09,361.09,0,0,0,51.65,8.28C324.79,721.17,318.78,717.73,313.82,714.89Z"/><path class="cls-1" d="M606.33,526.68c-1.47-5.66-5.93-10.08-8-9.84-.4,0-1.13.88-2.51,2.46-.93,1.08-2.1,2.43-3.7,4.1-1.88,2-3.85,3.87-5.88,5.66l14.35,15.45C603.52,541.05,608.24,534,606.33,526.68Z"/><path class="cls-1" d="M508.82,696.68a362.5,362.5,0,0,0,64.56-36.34,43.63,43.63,0,0,0-64.56,36.34Z"/><path class="cls-1" d="M451.76,705.51a43.66,43.66,0,0,0-28.12-75.62c-.55,0-1.09,0-1.64,0a43.64,43.64,0,0,0-40.66,27.88l.21.15-.53.74a43.65,43.65,0,0,0,70.74,46.88Z"/><path class="cls-1" d="M238.43,396.35a43.64,43.64,0,1,0,2.26-61.7A43.71,43.71,0,0,0,238.43,396.35Z"/><path class="cls-1" d="M623.42,584.71A49.93,49.93,0,0,1,625.24,573l-14.35-10.35-2.55,69.6q11.17-10.17,21.5-21.25A49.21,49.21,0,0,1,623.42,584.71Z"/><path class="cls-1" d="M389.43,562.35a43.64,43.64,0,1,0,2.26-61.7A43.71,43.71,0,0,0,389.43,562.35Z"/><path class="cls-1" d="M1.17,363.65q0,1.74,0,3.48C7,369.22,13,372.62,21.8,377.68c6.56,3.76,15,8.57,26.29,14.56a12.21,12.21,0,0,1,1-1.12l-5.26-5.67L42,387.14,38,382.75l8-7.48,4.08,4.4-1.82,1.69,6.11,6.58a13.12,13.12,0,0,1,2-.51l2.72-74.34-4.57-4.93h0L1.23,357.63C1.2,359.63,1.17,361.64,1.17,363.65Z"/><path class="cls-1" d="M36.13,485.61a43.65,43.65,0,0,0,2.26-61.7A43.4,43.4,0,0,0,8,410l-1.64,0c-.76,0-1.51,0-2.26.06A360.39,360.39,0,0,0,25,493.15,43.52,43.52,0,0,0,36.13,485.61Z"/><path class="cls-1" d="M60.33,281.68c-1.47-5.66-5.93-10.07-8-9.84-.4.05-1.13.88-2.51,2.46-.94,1.08-2.1,2.43-3.7,4.1-1.88,2-3.85,3.87-5.88,5.66l14.35,15.45C57.52,296.05,62.24,289,60.33,281.68Z"/><path class="cls-1" d="M204.33,447.68c-1.47-5.66-5.94-10.07-8-9.84-.4.05-1.13.88-2.51,2.46-.93,1.08-2.1,2.43-3.7,4.1-1.88,2-3.85,3.87-5.88,5.66l14.35,15.45C201.52,462.05,206.24,455,204.33,447.68Z"/><path class="cls-1" d="M156.76,373.51a43.66,43.66,0,0,0-28.12-75.62c-.55,0-1.09,0-1.64,0a43.64,43.64,0,0,0-40.66,27.88l.21.15-.53.74a43.65,43.65,0,0,0,70.74,46.88Z"/><path class="cls-1" d="M165.8,543.68c6.56,3.76,14.95,8.57,26.29,14.56a13.78,13.78,0,0,1,1-1.13l-5.26-5.66L186,553.14,182,548.75l8-7.48,4.08,4.4-1.82,1.69,6.11,6.58a13.12,13.12,0,0,1,2-.51l2.72-74.34-4.57-4.93h0l-61.26,56.92C146.32,532.52,153,536.36,165.8,543.68Z"/><path class="cls-1" d="M104.12,111.76a6.42,6.42,0,0,1,.86-.23l40.45-37.59a366.33,366.33,0,0,0-42,37.12Z"/><path class="cls-1" d="M276.76,120.51a43.66,43.66,0,0,0-28.12-75.62c-.55,0-1.09,0-1.64,0a43.64,43.64,0,0,0-40.66,27.88l.21.15-.53.74a43.65,43.65,0,0,0,70.74,46.88Z"/><path class="cls-1" d="M94.43,230.35A43.66,43.66,0,1,0,128,157l-1.64,0a43.66,43.66,0,0,0-31.94,73.38Z"/><path class="cls-1" d="M141.8,124.68c6.56,3.76,14.95,8.57,26.29,14.56a13.78,13.78,0,0,1,1-1.13l-5.26-5.66L162,134.14,158,129.75l8-7.48,4.08,4.4-1.82,1.69,6.11,6.57a14.43,14.43,0,0,1,2-.5l2.72-74.34-4.57-4.93h0l-61.26,56.92C122.32,113.52,129,117.36,141.8,124.68Z"/><path class="cls-1" d="M300.76,539.51a43.66,43.66,0,0,0-28.12-75.62c-.55,0-1.09,0-1.64,0a43.64,43.64,0,0,0-40.66,27.88l.21.15-.53.74a43.65,43.65,0,0,0,70.74,46.88Z"/><path class="cls-1" d="M184.09,56.69l17.23,12.43a49.72,49.72,0,1,1-3.9,17.59A49.93,49.93,0,0,1,199.24,75L184.89,64.67l-2.57,70a14,14,0,0,1,6.2,23.59l3.4,3.66,1.82-1.7,4.09,4.39-8.05,7.48-4.08-4.4,1.82-1.69-4.23-4.56a13.89,13.89,0,0,1-4.45.74h-.53a14,14,0,0,1-13.45-14.48,13.27,13.27,0,0,1,.47-3.09c-11.44-6-19.9-10.9-26.51-14.68-15.3-8.77-20.71-11.87-31.79-12.41l-1.81,1.68c-.71,3.11-1,11.75,5.41,34.37a49.38,49.38,0,1,1-5.6,2.26c-7.61-26.7-6.66-36.07-5.17-39.8l-.53-.58A361.66,361.66,0,0,0,1.46,349.22l48.92-45.46L31.57,283.52l2.46-2a86.84,86.84,0,0,0,7.78-7.23c1.5-1.57,2.61-2.85,3.51-3.89,2.18-2.52,3.62-4.18,6.36-4.49,6.15-.71,12.56,7,14.46,14.29,2.7,10.43-3.81,19.65-7.4,23.76l5.35,5.76,17.23,12.43a49.74,49.74,0,1,1-3.9,17.59A49.93,49.93,0,0,1,79.24,328L64.89,317.67l-2.57,70a14,14,0,0,1,6.75,4h0a14,14,0,0,1-.55,19.57l3.4,3.65,1.82-1.69,4.09,4.39-8,7.48-4.08-4.4L67.52,419l-4.23-4.56a13.89,13.89,0,0,1-4.45.74h-.53a14,14,0,0,1-13.45-14.48,13.27,13.27,0,0,1,.47-3.09c-11.44-6.05-19.9-10.9-26.51-14.68-7.67-4.4-12.85-7.36-17.51-9.3Q1.73,389,3.4,404.06q2.4-.15,4.83-.06a49.39,49.39,0,0,1,34.56,15.82A49.68,49.68,0,0,1,40.21,490a49.42,49.42,0,0,1-13.06,8.73,363.33,363.33,0,0,0,74,115.06,49.41,49.41,0,0,1,15.47-30.55A50,50,0,0,1,129,574.78c-7.61-26.69-6.66-36.06-5.17-39.79l-14.45-15.55L95.53,532.35,91.44,528l32.17-29.89,4.08,4.39-13.88,12.91,14.31,15.4a6.42,6.42,0,0,1,.86-.23l65.4-60.77-15-16.11-1.66-1.78-2.19-2.34,2.47-2a86.74,86.74,0,0,0,7.78-7.23c1.5-1.57,2.61-2.86,3.51-3.89,2.18-2.52,3.62-4.18,6.36-4.49,6.15-.72,12.56,7,14.45,14.29,2.71,10.42-3.8,19.65-7.39,23.76l5.35,5.76,17.23,12.43a49.72,49.72,0,1,1-3.9,17.59A49.93,49.93,0,0,1,223.24,494l-14.35-10.35-2.57,70a14,14,0,0,1,6.2,23.59l3.4,3.66,1.82-1.7,4.09,4.39-8.05,7.48-4.08-4.4,1.82-1.69-4.23-4.56a13.89,13.89,0,0,1-4.45.74h-.53a14,14,0,0,1-13.45-14.48,13.27,13.27,0,0,1,.47-3.09c-11.44-6.05-19.9-10.9-26.51-14.68-15.3-8.77-20.71-11.87-31.79-12.41l-1.81,1.68c-.71,3.11-1,11.75,5.41,34.36a49.68,49.68,0,1,1,30.3,94.61,360.94,360.94,0,0,0,109.44,48.32c-1.06-8.23-.38-12.3.49-14.46l-14.45-15.55-13.88,12.91-4.09-4.4,32.17-29.89,4.08,4.39-13.88,12.91,14.31,15.4a6.42,6.42,0,0,1,.86-.23l65.4-60.77-15-16.11-1.66-1.78-2.19-2.34,2.47-2a86.74,86.74,0,0,0,7.78-7.23c1.5-1.57,2.61-2.86,3.51-3.89,2.18-2.52,3.62-4.18,6.36-4.49,6.15-.7,12.56,7,14.45,14.29,2.71,10.42-3.8,19.65-7.39,23.76l5.35,5.76,17.23,12.43a49.68,49.68,0,1,1,68.46,63.54,359,359,0,0,0,58-18.42A49.71,49.71,0,0,1,531,653.78c-7.61-26.69-6.66-36.06-5.17-39.79l-14.45-15.55-13.88,12.91-4.09-4.4,32.17-29.89,4.08,4.39-13.88,12.91,14.31,15.4a6.42,6.42,0,0,1,.86-.23l65.4-60.77-15-16.11-1.66-1.78-2.19-2.34,2.47-2a86.74,86.74,0,0,0,7.78-7.23c1.5-1.57,2.61-2.86,3.51-3.89,2.18-2.52,3.62-4.18,6.36-4.49,6.15-.72,12.56,7,14.45,14.29,2.71,10.42-3.8,19.65-7.39,23.76l5.35,5.76,17.23,12.43a49.71,49.71,0,0,1,47.54-30.22,50,50,0,0,1,7.87.92q4.47-8.16,8.53-16.55l-.81,0c-.62,0-1.24,0-1.86,0A49.67,49.67,0,0,1,669,426.79c-7.62-26.7-6.67-36.07-5.18-39.8l-14.45-15.55-13.88,12.91-4.09-4.4,32.17-29.89,4.08,4.39-13.88,12.91,14.31,15.4a6.42,6.42,0,0,1,.86-.23l56.64-52.63q-.95-10.18-2.43-20.19l-3.78-4.06-1.66-1.78-2.19-2.34,2.47-2c1-.84,2-1.71,3-2.6a360.48,360.48,0,0,0-21.74-73,51.08,51.08,0,0,1-5.45,6A49.69,49.69,0,0,1,612.24,180l-14.35-10.35-2.57,70a14,14,0,0,1,6.2,23.59l3.4,3.66,1.82-1.7,4.09,4.39-8.05,7.48-4.08-4.4,1.82-1.69-4.23-4.56a13.89,13.89,0,0,1-4.45.74h-.53a14,14,0,0,1-13.45-14.48,13.27,13.27,0,0,1,.47-3.09c-11.44-6-19.9-10.9-26.51-14.68-15.3-8.77-20.71-11.87-31.79-12.41l-1.81,1.68c-.71,3.11-1,11.75,5.41,34.36a49.67,49.67,0,1,1,15.82,96.77c-.62,0-1.24,0-1.86,0a49.66,49.66,0,0,1-32-86A50,50,0,0,1,518,260.78c-7.61-26.69-6.66-36.06-5.17-39.79l-14.45-15.55-13.88,12.91-4.09-4.4,32.17-29.89,4.08,4.39-13.88,12.91,14.31,15.4a6.42,6.42,0,0,1,.86-.23l65.4-60.77-15-16.11-1.66-1.78-2.19-2.34,2.47-2a86.74,86.74,0,0,0,7.78-7.23c1.5-1.57,2.61-2.86,3.51-3.89,2.18-2.52,3.62-4.18,6.36-4.49,6.14-.71,12.56,7,14.45,14.29,2.71,10.42-3.8,19.65-7.39,23.76l5.35,5.76,17.23,12.43a49.73,49.73,0,0,1,39.1-29.81,364.79,364.79,0,0,0-96.63-88.39,50.8,50.8,0,0,1-6.94,8,49.66,49.66,0,0,1-83.43-38.19,50.07,50.07,0,0,1,1.39-10q-7.05-2.1-14.22-3.91l-2.27,61.89a14,14,0,0,1,6.2,23.59l3.4,3.66,1.82-1.7,4.09,4.39-8.05,7.48-4.08-4.4,1.82-1.69-4.23-4.56a13.89,13.89,0,0,1-4.45.74h-.53a14,14,0,0,1-13.45-14.48,13.27,13.27,0,0,1,.47-3.09c-11.44-6-19.9-10.9-26.51-14.68C392.52,60.12,387.11,57,376,56.48l-1.81,1.68c-.71,3.11-1,11.75,5.41,34.36a49.67,49.67,0,1,1,15.82,96.77c-.62,0-1.24,0-1.86,0a49.66,49.66,0,0,1-32-86A50,50,0,0,1,374,94.78c-7.61-26.69-6.66-36.06-5.17-39.79L354.41,39.44,340.53,52.35,336.44,48l32.17-29.89,4.08,4.39L358.81,35.36l14.31,15.4a6.42,6.42,0,0,1,.86-.23L422.62,5.34A365.61,365.61,0,0,0,364.17.65,361.27,361.27,0,0,0,179.09,51.32ZM465.38,382.76l-15-16.11-1.66-1.78-2.19-2.34,2.47-2a86.74,86.74,0,0,0,7.78-7.23c1.5-1.57,2.61-2.86,3.51-3.89,2.18-2.52,3.62-4.18,6.36-4.49,6.14-.71,12.56,7,14.45,14.29,2.71,10.42-3.8,19.65-7.39,23.76l5.35,5.76,17.23,12.43a49.72,49.72,0,1,1-3.9,17.59A49.93,49.93,0,0,1,494.24,407l-14.35-10.35-2.57,70a14,14,0,0,1,6.2,23.59l3.4,3.66,1.82-1.7,4.09,4.39-8.05,7.48-4.08-4.4,1.82-1.69-4.23-4.56a13.89,13.89,0,0,1-4.45.74h-.53a14,14,0,0,1-13.45-14.48,13.27,13.27,0,0,1,.47-3.09c-11.44-6.05-19.9-10.9-26.51-14.68-15.3-8.77-20.71-11.87-31.79-12.41l-1.81,1.68c-.71,3.11-1,11.75,5.41,34.36a49.67,49.67,0,1,1,15.82,96.77c-.62,0-1.24,0-1.86,0a49.66,49.66,0,0,1-32-86A50,50,0,0,1,400,487.78c-7.61-26.69-6.66-36.06-5.17-39.79l-14.45-15.55-13.88,12.91-4.09-4.4,32.17-29.89,4.08,4.39-13.88,12.91,14.31,15.4a6.42,6.42,0,0,1,.86-.23ZM305.81,187.26c1.5-1.57,2.61-2.86,3.51-3.89,2.18-2.52,3.62-4.18,6.36-4.49,6.15-.7,12.56,7,14.45,14.29,2.71,10.42-3.8,19.65-7.39,23.76l5.35,5.76,17.23,12.43a49.72,49.72,0,1,1-3.9,17.59A49.93,49.93,0,0,1,343.24,241l-14.35-10.35-2.57,70a14,14,0,0,1,6.2,23.59l3.4,3.66,1.82-1.7,4.09,4.39-8.05,7.48-4.08-4.4,1.82-1.69-4.23-4.56a13.89,13.89,0,0,1-4.45.74h-.53a14,14,0,0,1-13.45-14.48,13.27,13.27,0,0,1,.47-3.09c-11.44-6.05-19.9-10.9-26.51-14.68-15.3-8.77-20.71-11.87-31.79-12.41l-1.81,1.68c-.71,3.11-1,11.75,5.41,34.36a49.67,49.67,0,1,1,15.82,96.77c-.62,0-1.24,0-1.86,0a49.66,49.66,0,0,1-32-86A50,50,0,0,1,249,321.78c-7.61-26.69-6.66-36.06-5.17-39.79l-14.45-15.55-13.88,12.91-4.09-4.4,32.17-29.89,4.08,4.39-13.88,12.91,14.31,15.4a6.42,6.42,0,0,1,.86-.23l65.4-60.77-15-16.11-1.66-1.78-2.19-2.34,2.47-2A86.74,86.74,0,0,0,305.81,187.26Z"/><path class="cls-1" d="M363.43,169.35a43.64,43.64,0,1,0,2.26-61.7A43.71,43.71,0,0,0,363.43,169.35Z"/><path class="cls-1" d="M324.33,194.68c-1.47-5.66-6-10.07-8-9.84-.4,0-1.13.88-2.51,2.46-.93,1.08-2.1,2.43-3.7,4.1-1.88,2-3.85,3.87-5.88,5.66l14.35,15.45C321.52,209.05,326.24,202,324.33,194.68Z"/><path class="cls-1" d="M106.78,619.61a365,365,0,0,0,51.38,43,43.66,43.66,0,1,0-51.38-43Z"/><path class="cls-1" d="M318.48,221.16h0l-61.26,56.92c9.11,1.45,15.81,5.29,28.59,12.61,6.56,3.76,14.95,8.57,26.29,14.56a13.78,13.78,0,0,1,1-1.13l-5.26-5.66L306,300.14,302,295.75l8-7.48,4.08,4.4-1.82,1.69,6.11,6.58a13.12,13.12,0,0,1,2-.51l2.72-74.34-4.57-4.93Z"/><path class="cls-1" d="M350,239.63a43.64,43.64,0,1,0,42.62-28.74c-.55,0-1.09,0-1.64,0a43.64,43.64,0,0,0-40.66,27.88l.21.15Z"/><path class="cls-1" d="M554.8,229.68c6.56,3.76,15,8.57,26.29,14.56a13.78,13.78,0,0,1,1-1.13l-5.26-5.66L575,239.14,571,234.75l8-7.48,4.08,4.4-1.82,1.69,6.11,6.58a13.12,13.12,0,0,1,2-.51l2.72-74.34-4.57-4.93h0l-61.26,56.92C535.32,218.52,542,222.36,554.8,229.68Z"/><path class="cls-1" d="M507.43,335.35a43.64,43.64,0,1,0,2.26-61.7A43.71,43.71,0,0,0,507.43,335.35Z"/><path class="cls-1" d="M593.33,133.68c-1.47-5.66-5.94-10.09-8-9.84-.4,0-1.13.88-2.51,2.46-.93,1.08-2.1,2.43-3.7,4.1-1.88,2-3.85,3.87-5.88,5.66l14.35,15.45C590.52,148.05,595.24,141,593.33,133.68Z"/></svg>
