<svg id="Layer_1" data-name="Layer 1" xmlns="http://www.w3.org/2000/svg" width="726" height="725.99" viewBox="0 0 726 725.99"><defs><style>.cls-1{fill:#4a4a48;}.cls-2{fill:#424241;}.cls-3{fill:#616160;}.cls-4{fill:#f2efef;}</style></defs><title>logo</title><path class="cls-1" d="M182.91,472l-27.2-67.26,43.43,60.5S215.59,464,233.07,424l26.87,4s6.85,27.74-63.5,65.62c0,0-18.95,10.83,5.41,28.42,0,0,14.88,1,27.06,90.65,0,0,77.12,101.48,167.77,37.89,0,0-10.82-23,0-28.42a76.13,76.13,0,0,1,22.2-6.76v-28.9s9.64,4.78,9.64,8.76,6.37-8,6.37-8-8-26.28,9.56-30.26c0,0,37.69-116.81,31.81-119.34s16.59,11.67,32.71,2L475,546.06l94-124.49,19.48,8.91L490.36,549.6s-4.72,6.49,12.39,25.37c0,0,14.75,1.77-39.53,41.89,0,0-22.42,40.12-36,48.38l-38.34,6.3-6.49,16.12s-88,58.24-181.45-56.75c0,0,11.3-21.56-17.45-100.62l-9.28,0S142.63,491.44,182.91,472Z"/><path class="cls-2" d="M613.13,441.74S602,404.8,617.89,258.4c0,0-20.32-268.15-340.71-179.39,0,0-225.14,116.89-184,298.74,0,0,134.22,82.26,355,45.46,0,0,38.05,24.31,53.65,18.53,0,0,31.18-3.38,51.57-52.55L569,421.57Z"/><ellipse class="cls-3" cx="435.62" cy="231.02" rx="114.15" ry="110.48"/><path class="cls-4" d="M334.54,246.89l-1.37-3.76,9.79-3.57,1.65,4.52c1.71,4.71,4.4,5.65,7.69,4.45s4.75-3.65,3-8.54c-2-5.46-5.33-8.19-14.26-11.66-11.44-4.47-16.22-8.81-19-16.34-3.77-10.36-.6-18.34,9.48-22s17.26.54,21.09,11.09l1,2.73-9.8,3.56L342.59,204c-1.71-4.71-4.25-5.82-7.54-4.62s-4.53,3.68-2.89,8.2c1.75,4.8,5.19,7.49,14.13,11,11.43,4.47,16.08,8.75,19.07,16.94,3.9,10.74.63,18.75-9.53,22.45S338.38,257.44,334.54,246.89Z"/><path class="cls-4" d="M353.05,183.21l15.26-5.55c10.35-3.77,17.53.12,21.37,10.67l2.36,6.5c3.84,10.54.85,18.14-9.51,21.91l-4.9,1.78,9.77,26.84L377,249.13Zm26.05,24.11c3.3-1.2,4.54-3.36,2.82-8.06l-2.84-7.82c-1.71-4.71-4.05-5.56-7.35-4.36l-4.89,1.78,7.37,20.24Z"/><path class="cls-4" d="M397.31,167.11l34-12.38,3.43,9.42-17.9,6.51,6.35,17.42,14.21-5.17,3.43,9.41L426.6,197.5,434,217.74l17.89-6.51,3.43,9.42L427,230.93,422.35,218l-10.17,3.7,1.4,14.1-9.89,3.6Zm21.78,42-11.41-31.35-.19.06L411.18,212Z"/><path class="cls-4" d="M437.23,152.57l13-4.72,24.44,35.78.18-.07-14.36-39.45,9.23-3.36,24,65.91-10.64,3.88L453.12,167l-.19.06,17.51,48.12-9.22,3.36Z"/><path class="cls-4" d="M477.43,137.94l15.82-5.76c10.36-3.77,17.53.13,21.37,10.67l12.13,33.34c3.84,10.54.85,18.14-9.51,21.91l-15.82,5.76Zm36.19,50.81c3.3-1.2,4.66-3.61,3-8.32l-12.48-34.28c-1.71-4.71-4.31-5.68-7.6-4.48l-5.28,1.92,17.14,47.08Z"/><path class="cls-4" d="M314.78,278l10.36-3.77,9.76,26.84L346,297l-9.77-26.84,10.36-3.77,24,65.91-10.36,3.77-10.8-29.66-11.11,4.05,10.8,29.66-10.36,3.77Z"/><path class="cls-4" d="M376,330.38,372.53,321a14.34,14.34,0,0,0,3.53-.85c4.14-1.51,5.4-4.21,3.82-8.54L361.48,261l10.36-3.76,18.3,50.28c3.94,10.83.93,17.79-9.24,21.49A27.11,27.11,0,0,1,376,330.38Z"/><path class="cls-4" d="M379.28,254.53l28.24-10.28,3.43,9.41-17.89,6.51,6.34,17.42,14.22-5.17,3.43,9.42L402.83,287l7.37,20.24,17.89-6.51,3.42,9.42-28.24,10.28Z"/><path class="cls-4" d="M413.45,242.09l10.36-3.77,20.57,56.5,17-6.21,3.42,9.42-27.4,10Z"/><path class="cls-4" d="M445.84,230.3l14.79-5.38,23.76,44.78.19-.07L474,220.05l14.78-5.38,24,65.91L503,284.15l-18.17-49.91-.18.07L495.26,287l-8.67,3.15L460.9,243l-.19.07,18.16,49.9-9,3.29Z"/><path class="cls-4" d="M496.5,211.86l28.25-10.28,3.42,9.42-17.89,6.51,6.34,17.42,14.22-5.18,3.43,9.42-14.22,5.18,7.37,20.24,17.89-6.51,3.43,9.41-28.25,10.29Z"/><path class="cls-4" d="M530.68,199.42l13-4.73,24.44,35.79.18-.07L553.93,191l9.23-3.36,24,65.91-10.64,3.87-29.94-43.59-.19.07L563.89,262l-9.22,3.36Z"/></svg>
