<svg id="Layer_1" data-name="Layer 1" xmlns="http://www.w3.org/2000/svg" width="726" height="726" viewBox="0 0 726 726"><defs><style>.cls-1{fill:#f7f6dc;}</style></defs><title>tier_gul</title><path class="cls-1" d="M682,230.87l-14.26-11,11.9-34.38q-2.24-3.94-4.56-7.82l-10.82,38.22-21.72-11.45,8.93-38.58,21.63,8.54q-5.85-9.55-12.28-18.7l-7.32-3,.44-6.49q-4-5.34-8.21-10.53a398.11,398.11,0,0,1-23.93,117.34q-10.2-6.3-20.39-12.61c3.34-19.23,6.17-40.36,8-63.18,1.92-24.23,2.4-46.79,2-67.32l12.15.81q-3.93-4-8-8c-21.41-1-41.46-1-59.87-.33l-9.78-21.9c10.84-2.4,23-4.62,36.29-6.31-2-1.51-4-3-6.06-4.48L542.45,76.6,533.5,61l20.39-6.13A361.34,361.34,0,0,0,363.5,1C163,1,.5,163.52.5,364A361.92,361.92,0,0,0,28.94,505.09l35.78-10.75,10,19.41-38.32,7.74q1,2.13,2.08,4.23a398.25,398.25,0,0,1,140.71-5l-2.34,34.82c-20.3-3.13-42.72-5.66-67-7-21.18-1.16-41-1.25-59.33-.67q2.19,3.72,4.47,7.38l33.3-1.91,4.14,31.51-17.87-1.2c2.51,3.31,5.09,6.57,7.71,9.78q6.22.71,12,1.53l-.78,11.54q3.46,3.86,7,7.62c1.39-20.95,1.73-40.57,1.38-58.62l34.82,2.33a398.25,398.25,0,0,1-6.16,73.3c-.58,3.27-1.2,6.48-1.84,9.64q2.69,2.28,5.42,4.51l7.83-33.83,24.25,9.57-11.32,40c1.3.92,2.62,1.83,3.94,2.73l13.35-38.58L190,637.66l-16.26,35.87A361.31,361.31,0,0,0,363.5,727c200.48,0,363-162.52,363-363a361.6,361.6,0,0,0-34.61-154.87Zm-87.89,6.61L568.6,227l2.5-37.31,30.68,8.3Zm3.69-129.68L602,139.31l-37.32-2.5L557.7,110.1Zm6,41.62-2.34,34.83c-20.3-3.14-42.72-5.66-67-7-22.86-1.25-44.17-1.27-63.68-.52L461,154.85a398.12,398.12,0,0,1,142.79-5.43ZM516.52,258.51c-20.3-3.13-42.72-5.66-67-7-22.86-1.25-44.17-1.26-63.68-.51l-9.78-21.9a397.82,397.82,0,0,1,142.79-5.42Zm.33,13.77-7.64,39.46-25.54-10.46,2.5-37.31Zm-85.26,60.5c-20.3-3.14-42.72-5.66-67-7-22.86-1.25-44.17-1.27-63.68-.52l-9.78-21.89A398.12,398.12,0,0,1,433.93,298Zm.33,13.76L424.28,386l-25.53-10.46,2.49-37.31ZM346.66,407c-20.3-3.13-42.72-5.66-67-7-22.86-1.25-44.17-1.26-63.68-.51l-9.78-21.9A398.42,398.42,0,0,1,349,372.22Zm.33,13.77-7.64,39.46-25.53-10.45,2.49-37.32Zm-84.74,15.56-37.32-2.5-7-26.7,40.13-2.31Zm-50.62-2.24-39.43,3.7-8.45-23.05,41.62-6Zm37.05-93.62,41.62-6,6.26,25.32-39.43,3.69Zm54.23-7.61L343,330.59l4.14,31.51-37.32-2.5Zm30.7-66.65,41.62-6,6.26,25.31-39.43,3.7Zm54.23-7.61L428,256.33l4.14,31.51-37.32-2.5ZM418.54,192l41.62-6,6.26,25.32L427,215Zm54.23-7.61,40.13-2.31L517,213.57l-37.32-2.5Zm72.32-72.61,6.26,25.31-39.43,3.7-8.45-23.05ZM531.84,85.88l9.94,19.41L500,113.73,491,98.14ZM489.37,123l9.94,19.4-41.79,8.45-8.95-15.59Zm-42.46,37.13,9.94,19.41L415.06,188l-8.95-15.59Zm-42.47,37.13,9.94,19.41-41.79,8.44-8.95-15.59ZM362,234.42l9.94,19.4-41.79,8.44-8.95-15.59Zm-42.47,37.13,9.94,19.4-41.79,8.45-9-15.59Zm-42.46,37.13L287,328.09l-41.79,8.44-8.95-15.59Zm-42.47,37.13,9.94,19.41-41.79,8.44-8.95-15.59ZM192.12,383l9.94,19.4-41.79,8.45-9-15.6Zm-42.47,37.13,9.94,19.4-41.79,8.45-9-15.59ZM66.39,469.47l40.8-12.26,9.94,19.41-41.79,8.44ZM87.27,512.1,78.82,489l41.62-6,6.26,25.31Zm52.73-4-6.95-26.7,40.13-2.31,4.14,31.51Zm-8.94-34.33-9.78-21.89a398.12,398.12,0,0,1,142.79-5.43l-2.34,34.83c-20.3-3.14-42.72-5.66-67-7C171.88,473.07,150.57,473.05,131.06,473.8Zm131,21.27-7.64,39.47-25.53-10.46,2.49-37.31ZM169.49,608.8,144,598.35l2.5-37.32,30.67,8.31Zm7.3,3c3.34-19.23,6.17-40.36,8-63.18,1.92-24.23,2.41-46.79,2-67.33l34.82,2.34a398.08,398.08,0,0,1-6.16,73.29,398.09,398.09,0,0,1-18.26,67.49Zm38.13,27.54-14.26-11,13.94-40.29,17.91,12.44Zm3-63.51,8.93-38.59,24.25,9.58-11.46,40.46Zm39.46,26.38-14.25-11L257.07,551,275,563.4Zm4.34-64.68c3.34-19.23,6.17-40.36,8-63.18,1.92-24.23,2.41-46.78,2-67.32l34.82,2.33a398.25,398.25,0,0,1-6.16,73.3,398,398,0,0,1-18.26,67.48Q271.91,543.83,261.72,537.52Zm38.13,27.54-14.26-10.95,13.94-40.29,17.91,12.45Zm3-63.51L311.78,463,336,472.54,324.57,513Zm39.46,26.38L328.06,517,342,476.69l17.9,12.44Zm4.34-64.67c3.34-19.23,6.17-40.36,8-63.18,1.92-24.24,2.41-46.79,2-67.33l34.82,2.33a398.11,398.11,0,0,1-6.16,73.3A398.09,398.09,0,0,1,367,475.87Zm38.13,27.54-14.26-10.95,13.94-40.29L402.37,452Zm3-63.51,8.93-38.59L421,398.28,409.5,438.74Zm39.46,26.38L413,442.72l13.95-40.3,17.9,12.45ZM431.58,389c3.34-19.23,6.17-40.36,8-63.18,1.92-24.23,2.41-46.78,2-67.32l34.82,2.33A398.11,398.11,0,0,1,452,401.6Q441.77,395.3,431.58,389Zm38.13,27.54-14.26-10.95,13.94-40.29,17.91,12.44Zm3-63.51,8.93-38.58L505.89,324l-11.46,40.46Zm39.46,26.38-14.26-10.95,13.95-40.29,17.9,12.44Zm4.34-64.67c3.34-19.23,6.17-40.36,8-63.18,1.92-24.24,2.4-46.79,2-67.33l34.82,2.33A398.22,398.22,0,0,1,536.9,327.34Zm38.13,27.54-14.26-10.95L554.32,291l17.91,12.44Zm3-63.51,8.93-38.59,24.25,9.58-11.46,40.46Zm39.46,26.38-14.26-10.95,13.95-40.3,17.9,12.45ZM639.57,268l-14.26-10.95,13.94-40.29,17.91,12.44Z"/></svg>
