<svg id="Lag_1" data-name="Lag 1" xmlns="http://www.w3.org/2000/svg" width="134.73mm" height="145.8mm" viewBox="0 0 381.91 413.29"><defs><style>.cls-1{fill:#f2f0f0;}.cls-2{fill:#ddd;}.cls-3{fill:#424241;}.cls-4{fill:#4a4948;}.cls-5{fill:#616160;}</style></defs><title>lille_sticker</title><circle class="cls-1" cx="190.96" cy="216.24" r="190.96"/><circle class="cls-2" cx="190.96" cy="197.95" r="187.98"/><path class="cls-3" d="M358.56,245.33s-7.18-23.8,3.07-118.14c0,0-13.1-172.77-219.54-115.59,0,0-145.07,75.33-118.57,192.5,0,0,86.49,53,228.76,29.29,0,0,24.53,15.67,34.57,11.94,0,0,20.1-2.18,33.23-33.86l10.05,20.86Z"/><path class="cls-4" d="M81.34,264.83,63.82,221.49l28,39s10.59-.79,21.86-26.55L131,236.49s4.42,17.87-40.92,42.28c0,0-12.2,7,3.49,18.31,0,0,9.59.65,17.44,58.41,0,0,49.69,65.39,108.1,24.42,0,0-7-14.83,0-18.31a49,49,0,0,1,14.3-4.36V338.62s6.22,3.08,6.22,5.64,4.1-5.13,4.1-5.13-5.13-16.93,6.16-19.49c0,0,24.28-75.27,20.49-76.9s10.7,7.52,21.08,1.3l-21.87,68.51,60.56-80.22,12.55,5.74-63.23,76.76s-3,4.18,8,16.35c0,0,9.5,1.14-25.47,27,0,0-14.45,25.85-23.19,31.17l-24.71,4.06-4.19,10.39S153.17,441.32,93,367.22c0,0,7.28-13.89-11.24-64.83l-6,0S55.39,277.35,81.34,264.83Z"/><ellipse class="cls-5" cx="244.18" cy="109.55" rx="73.55" ry="71.19"/><path class="cls-1" d="M184.42,126.8q-3.49-1.86-5.37-7l-.89-2.42,6.31-2.3,1.06,2.91q1.51,4.13,5,2.87a3.46,3.46,0,0,0,2.22-1.94,5.24,5.24,0,0,0-.3-3.57,9.61,9.61,0,0,0-2.93-4.26,23.93,23.93,0,0,0-6.27-3.25,28.46,28.46,0,0,1-8.15-4.48,14.24,14.24,0,0,1-4.06-6q-1.83-5-.29-8.72t6.4-5.46q4.78-1.74,8.25.12t5.34,7l.64,1.76L185,94.31l-.79-2.18a5.22,5.22,0,0,0-2-2.88,3.27,3.27,0,0,0-2.85-.09q-3.34,1.22-1.86,5.28a8.45,8.45,0,0,0,2.81,3.85,24.73,24.73,0,0,0,6.29,3.21,26.66,26.66,0,0,1,8.17,4.52,15.61,15.61,0,0,1,4.11,6.4q1.9,5.22.34,9t-6.48,5.51C189.53,128.06,186.74,128,184.42,126.8Z"/><path class="cls-1" d="M191,78.75l9.83-3.58q5-1.8,8.43,0t5.33,6.92l1.53,4.19q1.88,5.15.36,8.73c-1,2.38-3.17,4.18-6.49,5.38l-3.16,1.15,6.3,17.29-6.68,2.43Zm16.78,15.54a3.37,3.37,0,0,0,2.13-1.81,4.94,4.94,0,0,0-.31-3.39l-1.83-5a4.87,4.87,0,0,0-1.95-2.79,3.32,3.32,0,0,0-2.79,0l-3.15,1.15,4.75,13Z"/><path class="cls-1" d="M219.49,68.37l21.9-8,2.21,6.07-11.53,4.2,4.09,11.22,9.16-3.34,2.21,6.07L238.37,88l4.74,13,11.53-4.2,2.21,6.07-18.2,6.63-3-8.32-6.55,2.39.9,9.08L223.6,115Zm14,27.05-7.36-20.2-.12,0,2.38,22Z"/><path class="cls-1" d="M245.21,59l8.38-3L269.33,79l.12,0L260.2,53.56l5.94-2.17L281.6,93.86l-6.85,2.5L255.46,68.27l-.13,0,11.29,31-5.95,2.16Z"/><path class="cls-1" d="M271.12,49.58l10.19-3.71c3.32-1.2,6.13-1.22,8.43,0s4.09,3.48,5.34,6.92l7.82,21.47q1.88,5.16.36,8.74c-1,2.38-3.18,4.18-6.49,5.38l-10.19,3.71Zm23.32,32.74a3.44,3.44,0,0,0,2.16-1.89,4.91,4.91,0,0,0-.26-3.47l-8-22.09a4.93,4.93,0,0,0-2-2.83A3.47,3.47,0,0,0,283.4,52L280,53.22l11,30.34Z"/><path class="cls-1" d="M166.32,139.83,173,137.4l6.29,17.29,7.16-2.6-6.29-17.29,6.67-2.43,15.46,42.46-6.67,2.43-7-19.11-7.16,2.61,7,19.11-6.68,2.43Z"/><path class="cls-1" d="M205.74,173.58l-2.21-6.07a9.69,9.69,0,0,0,2.27-.55,4.2,4.2,0,0,0,2.61-2.09,4.53,4.53,0,0,0-.14-3.41l-11.86-32.58,6.67-2.43,11.79,32.4q1.9,5.21.43,8.63c-1,2.28-3.1,4-6.38,5.21A18.47,18.47,0,0,1,205.74,173.58Z"/><path class="cls-1" d="M207.88,124.7l18.19-6.62,2.21,6.07-11.52,4.19,4.08,11.23,9.16-3.34,2.21,6.07-9.16,3.33,4.75,13.05,11.52-4.2,2.21,6.07-18.2,6.62Z"/><path class="cls-1" d="M229.9,116.69l6.67-2.43,13.25,36.4,11-4,2.21,6.07-17.66,6.43Z"/><path class="cls-1" d="M250.77,109.09l9.52-3.46,15.31,28.85.12,0-6.81-31.94L278.43,99l15.46,42.47-6.31,2.3-11.7-32.16-.12.05,6.84,33.92-5.58,2-16.55-30.39-.13.05,11.71,32.15-5.83,2.12Z"/><path class="cls-1" d="M283.41,97.21l18.2-6.62,2.2,6.06-11.52,4.2,4.08,11.22,9.16-3.33,2.21,6.07-9.16,3.33,4.75,13,11.53-4.2,2.2,6.07-18.2,6.62Z"/><path class="cls-1" d="M305.43,89.2l8.37-3,15.74,23.06.13,0-9.26-25.42,5.95-2.16,15.46,42.47L335,126.54,315.67,98.46l-.12,0,11.28,31-5.94,2.17Z"/></svg>
