<svg id="Lag_1" data-name="Lag 1" xmlns="http://www.w3.org/2000/svg" width="204.86mm" height="221.69mm" viewBox="0 0 580.71 628.41"><defs><style>.cls-1{fill:#f2f0f0;}.cls-2{fill:#ddd;}.cls-3{fill:#424241;}.cls-4{fill:#4a4948;}.cls-5{fill:#616160;}</style></defs><title>mellem_sticker</title><circle class="cls-1" cx="290.35" cy="328.8" r="290.35"/><circle class="cls-2" cx="290.35" cy="300.99" r="285.82"/><path class="cls-3" d="M545.19,373s-10.9-36.2,4.67-179.63c0,0-19.92-262.71-333.81-175.75,0,0-220.58,114.52-180.28,292.68,0,0,131.5,80.6,347.83,44.54,0,0,37.29,23.82,52.56,18.16,0,0,30.56-3.31,50.53-51.49L502,353.27Z"/><path class="cls-4" d="M123.68,402.67,97,336.77,139.59,396s16.11-1.2,33.24-40.37l26.33,3.92s6.71,27.17-62.22,64.29c0,0-18.56,10.61,5.3,27.84,0,0,14.59,1,26.52,88.82,0,0,75.56,99.42,164.37,37.11,0,0-10.6-22.53,0-27.83a74.38,74.38,0,0,1,21.75-6.63V514.88s9.45,4.68,9.45,8.58,6.24-7.8,6.24-7.8-7.8-25.74,9.36-29.64c0,0,36.93-114.45,31.16-116.93s16.26,11.44,32.05,2L409.88,475.24l92.09-122L521.06,362,424.91,478.7s-4.62,6.36,12.14,24.86c0,0,14.45,1.73-38.73,41,0,0-22,39.31-35.26,47.4l-37.57,6.18L319.13,614S232.9,671,141.37,558.37c0,0,11.06-21.13-17.1-98.58l-9.09,0S84.22,421.72,123.68,402.67Z"/><ellipse class="cls-5" cx="371.28" cy="166.58" rx="111.84" ry="108.24"/><path class="cls-1" d="M280.41,192.79q-5.31-2.82-8.17-10.66l-1.34-3.69,9.6-3.49,1.61,4.43q2.28,6.27,7.54,4.36a5.3,5.3,0,0,0,3.37-3c.52-1.34.36-3.15-.46-5.43a14.59,14.59,0,0,0-4.45-6.47,36.38,36.38,0,0,0-9.53-4.94q-8.29-3.25-12.41-6.82a21.75,21.75,0,0,1-6.16-9.2q-2.79-7.65-.44-13.26t9.72-8.3q7.29-2.64,12.55.19T290,137.24l1,2.67-9.6,3.5-1.21-3.33q-1.2-3.32-3.05-4.37a5,5,0,0,0-4.34-.14q-5.07,1.85-2.82,8a12.93,12.93,0,0,0,4.27,5.86,38.5,38.5,0,0,0,9.56,4.88q8.38,3.22,12.43,6.87a23.86,23.86,0,0,1,6.26,9.73q2.88,7.94.51,13.61t-9.85,8.39Q285.72,195.62,280.41,192.79Z"/><path class="cls-1" d="M290.38,119.74l14.95-5.44q7.56-2.74,12.82-.07t8.11,10.52l2.32,6.37q2.87,7.84.55,13.28t-9.87,8.18l-4.79,1.75L324,180.62l-10.14,3.7Zm25.53,23.62a5.09,5.09,0,0,0,3.23-2.74c.49-1.23.34-3-.47-5.16l-2.79-7.66c-.8-2.21-1.79-3.63-2.95-4.25a5.06,5.06,0,0,0-4.24,0l-4.8,1.74,7.22,19.84Z"/><path class="cls-1" d="M333.74,104,367,91.84l3.36,9.23-17.53,6.38,6.21,17.06L373,119.44l3.36,9.23-13.93,5.07,7.22,19.83,17.53-6.38,3.35,9.23-27.67,10.07-4.6-12.64-10,3.63,1.37,13.81L340,174.81Zm21.34,41.13L343.9,114.37l-.18.06,3.61,33.48Z"/><path class="cls-1" d="M372.85,89.73l12.73-4.64,23.94,35.06.19-.06L395.64,81.43l9-3.29,23.5,64.58-10.42,3.79L388.42,103.8l-.18.07L405.4,151l-9,3.29Z"/><path class="cls-1" d="M412.24,75.39l15.5-5.64q7.56-2.76,12.82-.07t8.12,10.52l11.88,32.66q2.87,7.85.55,13.27t-9.87,8.19L435.74,140Zm35.46,49.78A5.22,5.22,0,0,0,451,122.3c.53-1.31.4-3.07-.41-5.29L438.36,83.43q-1.2-3.32-3.08-4.31a5.24,5.24,0,0,0-4.37-.08l-5.16,1.88,16.78,46.13Z"/><path class="cls-1" d="M252.89,212.61,263,208.92l9.57,26.29,10.89-4L273.92,205l10.15-3.7,23.5,64.58-10.15,3.69-10.57-29.06-10.89,4,10.58,29.06-10.15,3.7Z"/><path class="cls-1" d="M312.83,263.92l-3.36-9.22a14.57,14.57,0,0,0,3.46-.84,6.41,6.41,0,0,0,4-3.17,6.89,6.89,0,0,0-.22-5.19l-18-49.54,10.15-3.69,17.93,49.26q2.88,7.93.65,13.13t-9.7,7.92A27.13,27.13,0,0,1,312.83,263.92Z"/><path class="cls-1" d="M316.08,189.61l27.67-10.07,3.36,9.23-17.53,6.37,6.21,17.07,13.93-5.07,3.36,9.23-13.93,5.07,7.22,19.83,17.53-6.38,3.35,9.22-27.67,10.08Z"/><path class="cls-1" d="M349.56,177.43l10.15-3.7,20.15,55.35L396.55,223l3.36,9.23L373.07,242Z"/><path class="cls-1" d="M381.29,165.88l14.49-5.28,23.28,43.87.18-.07-10.36-48.56,14.48-5.27,23.5,64.57-9.59,3.49-17.79-48.89-.19.07,10.41,51.57-8.48,3.09L396,178.27l-.18.06,17.79,48.9-8.85,3.22Z"/><path class="cls-1" d="M430.92,147.81l27.68-10.07L462,147l-17.53,6.38,6.21,17.07,13.93-5.07,3.36,9.22L454,179.63l7.22,19.84,17.52-6.38,3.36,9.22-27.67,10.08Z"/><path class="cls-1" d="M464.41,135.62,477.14,131l23.94,35.06.18-.07-14.07-38.65,9.05-3.29,23.5,64.57-10.43,3.8L480,149.7l-.18.07L497,196.91l-9,3.29Z"/></svg>
