<?xml version="1.0" encoding="utf-8"?>
<!-- Generator: Adobe Illustrator 22.1.0, SVG Export Plug-In . SVG Version: 6.00 Build 0)  -->
<svg version="1.1" id="Lag_1" xmlns="http://www.w3.org/2000/svg" xmlns:xlink="http://www.w3.org/1999/xlink" x="0px" y="0px"
	 viewBox="0 0 50.3 54.4" style="enable-background:new 0 0 50.3 54.4;" xml:space="preserve">
<style type="text/css">
	.st0{fill:#F2F0F0;}
	.st1{fill:#DDDDDD;}
	.st2{fill:#424241;}
	.st3{fill:#4A4948;}
	.st4{fill:#616160;}
</style>
<title>mini_sticker</title>
<g>
	<circle class="st0" cx="25.1" cy="28.5" r="25.1"/>
	<circle class="st1" cx="25.1" cy="26" r="24.7"/>
	<path class="st2" d="M47.2,32.3c0,0-0.9-3.1,0.4-15.5c0,0-1.7-22.7-28.9-15.2c0,0-19.1,9.9-15.6,25.3c0,0,11.4,7,30.1,3.9
		c0,0,3.2,2.1,4.5,1.6c0,0,2.6-0.3,4.4-4.5l1.3,2.7L47.2,32.3z"/>
	<path class="st3" d="M10.7,34.8l-2.3-5.7l3.7,5.1c0,0,1.4-0.1,2.9-3.5l2.3,0.3c0,0,0.6,2.4-5.4,5.6c0,0-1.6,0.9,0.5,2.4
		c0,0,1.3,0.1,2.3,7.7c0,0,6.5,8.6,14.2,3.2c0,0-0.9-1.9,0-2.4c0.6-0.3,1.2-0.5,1.9-0.6v-2.5c0,0,0.8,0.4,0.8,0.7
		c0,0.3,0.5-0.7,0.5-0.7s-0.7-2.2,0.8-2.6c0,0,3.2-9.9,2.7-10.1s1.4,1,2.8,0.2l-2.9,9l8-10.6l1.7,0.7l-8.3,10.1c0,0-0.4,0.6,1.1,2.2
		c0,0,1.3,0.2-3.4,3.6c0,0-1.9,3.4-3.1,4.1l-3.3,0.5l-0.5,1.4c0,0-7.5,4.9-15.4-4.8c0,0,1-1.8-1.5-8.5H10
		C10,39.8,7.3,36.5,10.7,34.8z"/>
	<ellipse class="st4" cx="32.1" cy="14.4" rx="9.7" ry="9.4"/>
	<path class="st0" d="M24.3,16.7c-0.3-0.2-0.6-0.5-0.7-0.9l-0.1-0.3l0.8-0.3l0.1,0.4c0.1,0.4,0.3,0.5,0.7,0.4c0.1,0,0.2-0.1,0.3-0.2
		c0-0.2,0-0.3,0-0.5c-0.1-0.2-0.2-0.4-0.4-0.6c-0.3-0.2-0.5-0.3-0.8-0.4c-0.4-0.1-0.8-0.3-1.1-0.6c-0.2-0.2-0.4-0.5-0.5-0.8
		c-0.2-0.4-0.2-0.8,0-1.1c0.2-0.4,0.5-0.6,0.8-0.7c0.3-0.2,0.7-0.1,1.1,0c0.3,0.2,0.6,0.5,0.7,0.9l0.1,0.2l-0.8,0.3l-0.1-0.3
		c0-0.1-0.1-0.3-0.3-0.4c-0.1-0.1-0.3-0.1-0.4,0c-0.3,0.1-0.4,0.3-0.2,0.7c0.1,0.2,0.2,0.4,0.4,0.5c0.3,0.2,0.5,0.3,0.8,0.4
		c0.4,0.1,0.8,0.3,1.1,0.6c0.2,0.2,0.4,0.5,0.5,0.8c0.2,0.4,0.2,0.8,0,1.2c-0.2,0.4-0.5,0.6-0.9,0.7C25,16.8,24.6,16.8,24.3,16.7z"
		/>
	<path class="st0" d="M25.1,10.4l1.3-0.5c0.4-0.2,0.8-0.2,1.1,0c0.3,0.2,0.6,0.5,0.7,0.9l0.2,0.5c0.2,0.4,0.2,0.8,0,1.1
		c-0.2,0.3-0.5,0.6-0.9,0.7l-0.4,0.2l0.8,2.3L27.2,16L25.1,10.4z M27.3,12.4c0.1,0,0.2-0.1,0.3-0.2c0-0.1,0-0.3,0-0.4L27.3,11
		c0-0.1-0.1-0.3-0.2-0.4c-0.1-0.1-0.3-0.1-0.4,0l-0.4,0.2l0.6,1.7L27.3,12.4z"/>
	<path class="st0" d="M28.9,9l2.9-1l0.3,0.8l-1.5,0.6l0.5,1.5l1.2-0.4l0.3,0.8l-1.2,0.4l0.6,1.7l1.5-0.6l0.3,0.8l-2.4,0.9L31,13.3
		l-0.9,0.3l0.1,1.2l-0.8,0.3L28.9,9z M30.7,12.6l-1-2.7h0l0.3,2.9L30.7,12.6z"/>
	<path class="st0" d="M32.3,7.8l1.1-0.4l2.1,3h0L34.2,7L35,6.8l2,5.6l-0.9,0.3L33.6,9h0l1.5,4.1l-0.8,0.3L32.3,7.8z"/>
	<path class="st0" d="M35.7,6.5L37,6c0.4-0.2,0.8-0.2,1.1,0c0.3,0.2,0.6,0.5,0.7,0.9l1,2.8c0.2,0.4,0.2,0.8,0,1.1
		c-0.2,0.3-0.5,0.6-0.9,0.7l-1.3,0.5L35.7,6.5z M38.7,10.8c0.1,0,0.2-0.1,0.3-0.2c0-0.2,0-0.3,0-0.5l-1.1-2.9c0-0.2-0.1-0.3-0.3-0.4
		c-0.1-0.1-0.3-0.1-0.4,0L36.8,7l1.5,4L38.7,10.8z"/>
	<path class="st0" d="M21.9,18.4l0.9-0.3l0.8,2.3l0.9-0.3l-0.8-2.3l0.9-0.3l2,5.6l-0.9,0.3l-0.9-2.5l-0.9,0.3l0.9,2.5L23.9,24
		L21.9,18.4z"/>
	<path class="st0" d="M27.1,22.8L26.8,22c0.1,0,0.2,0,0.3-0.1c0.1,0,0.3-0.1,0.3-0.3c0.1-0.1,0-0.3,0-0.5L25.8,17l0.9-0.3l1.6,4.3
		c0.2,0.4,0.2,0.8,0.1,1.1c-0.2,0.3-0.5,0.6-0.8,0.7C27.4,22.8,27.2,22.8,27.1,22.8z"/>
	<path class="st0" d="M27.4,16.4l2.4-0.9l0.3,0.8l-1.5,0.6l0.5,1.5l1.2-0.4l0.3,0.8l-1.2,0.4l0.6,1.7l1.5-0.6l0.3,0.8L29.4,22
		L27.4,16.4z"/>
	<path class="st0" d="M30.3,15.4l0.9-0.3l1.7,4.8l1.4-0.5l0.3,0.8l-2.3,0.8L30.3,15.4z"/>
	<path class="st0" d="M33,14.4l1.3-0.5l2,3.8h0l-0.9-4.2l1.3-0.5l2,5.6l-0.8,0.3l-1.5-4.2h0l0.9,4.5l-0.7,0.3l-2.2-4h0l1.5,4.2
		L35,19.9L33,14.4z"/>
	<path class="st0" d="M37.3,12.8l2.4-0.9l0.3,0.8l-1.5,0.6l0.5,1.5l1.2-0.4l0.3,0.8l-1.2,0.4l0.6,1.7l1.5-0.6l0.3,0.8l-2.4,0.9
		L37.3,12.8z"/>
	<path class="st0" d="M40.2,11.7l1.1-0.4l2.1,3h0L42.2,11l0.8-0.3l2,5.6l-0.9,0.3L41.5,13h0L43,17l-0.8,0.3L40.2,11.7z"/>
</g>
</svg>
