<svg id="Lag_1" data-name="Lag 1" xmlns="http://www.w3.org/2000/svg" width="71.7mm" height="77.59mm" viewBox="0 0 203.25 219.95"><defs><style>.cls-1{fill:#f2f0f0;}.cls-2{fill:#ddd;}.cls-3{fill:#424241;}.cls-4{fill:#4a4948;}.cls-5{fill:#616160;}</style></defs><title>mini_sticker</title><circle class="cls-1" cx="101.63" cy="115.08" r="101.63"/><circle class="cls-2" cx="101.63" cy="105.35" r="100.04"/><path class="cls-3" d="M190.82,130.56s-3.82-12.67,1.63-62.87c0,0-7-91.95-116.83-61.51,0,0-77.21,40.08-63.1,102.44,0,0,46,28.21,121.74,15.59,0,0,13.05,8.34,18.4,6.35,0,0,10.69-1.16,17.69-18l5.34,11.11Z"/><path class="cls-4" d="M43.29,140.94,34,117.87l14.89,20.75s5.64-.42,11.63-14.13l9.22,1.37s2.35,9.51-21.78,22.5c0,0-6.5,3.71,1.86,9.75,0,0,5.1.34,9.28,31.08,0,0,26.44,34.8,57.53,13,0,0-3.71-7.88,0-9.74a25.93,25.93,0,0,1,7.61-2.32v-9.91s3.31,1.64,3.31,3,2.18-2.73,2.18-2.73-2.73-9,3.28-10.38c0,0,12.92-40.06,10.91-40.92s5.69,4,11.21.69l-11.64,36.46,32.23-42.69,6.68,3-33.65,40.85s-1.62,2.23,4.25,8.7c0,0,5.06.61-13.55,14.36,0,0-7.69,13.76-12.34,16.59l-13.16,2.17-2.22,5.52s-30.18,20-62.22-19.46c0,0,3.87-7.39-6-34.5H40.31S29.48,147.61,43.29,140.94Z"/><ellipse class="cls-5" cx="129.95" cy="58.3" rx="39.15" ry="37.89"/><path class="cls-1" d="M98.15,67.48a6.45,6.45,0,0,1-2.86-3.73l-.47-1.29,3.36-1.23.56,1.55q.8,2.2,2.64,1.53a1.84,1.84,0,0,0,1.18-1,2.78,2.78,0,0,0-.16-1.9,5.19,5.19,0,0,0-1.56-2.27,12.79,12.79,0,0,0-3.33-1.73A15.42,15.42,0,0,1,93.16,55,7.71,7.71,0,0,1,91,51.78a6.25,6.25,0,0,1-.15-4.64,5.43,5.43,0,0,1,3.41-2.91,5.21,5.21,0,0,1,4.39.07A6.51,6.51,0,0,1,101.49,48l.34.94-3.36,1.22L98.05,49A2.79,2.79,0,0,0,97,47.5a1.74,1.74,0,0,0-1.52,0c-1.18.43-1.51,1.37-1,2.81A4.55,4.55,0,0,0,96,52.31,13.55,13.55,0,0,0,99.32,54a14.3,14.3,0,0,1,4.35,2.4,8.38,8.38,0,0,1,2.19,3.41,6.43,6.43,0,0,1,.17,4.76,5.5,5.5,0,0,1-3.44,2.94A5.32,5.32,0,0,1,98.15,67.48Z"/><path class="cls-1" d="M101.64,41.91l5.23-1.9a5.5,5.5,0,0,1,4.49,0,6.35,6.35,0,0,1,2.84,3.69l.81,2.22a6.3,6.3,0,0,1,.19,4.65,5.53,5.53,0,0,1-3.46,2.87l-1.67.61,3.35,9.2-3.56,1.29Zm8.93,8.27a1.76,1.76,0,0,0,1.13-1,2.65,2.65,0,0,0-.16-1.81l-1-2.68a2.67,2.67,0,0,0-1-1.49,1.79,1.79,0,0,0-1.49,0l-1.68.61,2.53,6.94Z"/><path class="cls-1" d="M116.81,36.39l11.66-4.24,1.17,3.22-6.13,2.24,2.17,6,4.88-1.77L131.73,45l-4.87,1.77,2.53,6.94,6.13-2.23,1.17,3.23L127,58.27l-1.61-4.42-3.49,1.27.48,4.83L119,61.19Zm7.47,14.39L120.37,40l-.07,0,1.27,11.72Z"/><path class="cls-1" d="M130.5,31.4,135,29.78l8.38,12.27.06,0L138.48,28.5l3.16-1.15L149.87,50l-3.65,1.33L136,36.33l-.06,0,6,16.49L138.73,54Z"/><path class="cls-1" d="M144.29,26.39l5.42-2a5.5,5.5,0,0,1,4.49,0A6.22,6.22,0,0,1,157,28.07L161.2,39.5a6.25,6.25,0,0,1,.19,4.65A5.5,5.5,0,0,1,157.94,47l-5.43,2ZM156.7,43.81a1.85,1.85,0,0,0,1.15-1,2.61,2.61,0,0,0-.14-1.85L153.43,29.2a2.66,2.66,0,0,0-1.08-1.51,1.84,1.84,0,0,0-1.53,0l-1.8.66,5.87,16.15Z"/><path class="cls-1" d="M88.51,74.42l3.56-1.3,3.34,9.21,3.81-1.39-3.35-9.2,3.56-1.3,8.22,22.61-3.55,1.29-3.7-10.17-3.81,1.39,3.7,10.17L96.74,97Z"/><path class="cls-1" d="M109.49,92.38l-1.17-3.23a5.08,5.08,0,0,0,1.21-.3,2.23,2.23,0,0,0,1.39-1.1,2.47,2.47,0,0,0-.08-1.82l-6.31-17.34,3.55-1.29,6.27,17.24a6.18,6.18,0,0,1,.23,4.59,5.43,5.43,0,0,1-3.39,2.78A10.12,10.12,0,0,1,109.49,92.38Z"/><path class="cls-1" d="M110.63,66.37l9.69-3.53,1.17,3.23-6.13,2.23,2.17,6,4.88-1.78,1.17,3.23-4.87,1.77,2.52,7,6.14-2.24,1.17,3.23L118.86,89Z"/><path class="cls-1" d="M122.35,62.1l3.55-1.29,7,19.37,5.85-2.13L140,81.28l-9.39,3.42Z"/><path class="cls-1" d="M133.46,58.06l5.07-1.85,8.14,15.36.07,0-3.63-17,5.07-1.84,8.23,22.6-3.36,1.22-6.23-17.11-.06,0,3.64,18-3,1.08L138.62,62.4l-.07,0,6.23,17.11-3.1,1.13Z"/><path class="cls-1" d="M150.83,51.74l9.68-3.53,1.18,3.23-6.14,2.23,2.18,6,4.87-1.78,1.18,3.23-4.88,1.77,2.53,6.95,6.13-2.24,1.18,3.23-9.69,3.53Z"/><path class="cls-1" d="M162.55,47.47,167,45.85l8.38,12.27.07,0-4.93-13.53,3.17-1.15L181.91,66l-3.65,1.33L168,52.4l-.07,0,6,16.5-3.17,1.15Z"/></svg>
